<svg width="398" height="167" viewBox="0 0 398 167" fill="none" xmlns="http://www.w3.org/2000/svg">
<g filter="url(#filter0_d_2_4)">
<path d="M56.125 75C58.0417 76 59.9583 77.0833 61.875 78.25C63.875 79.4167 65.7083 80.5417 67.375 81.625C69.0417 82.625 70.4167 83.5833 71.5 84.5C72.6667 85.3333 73.4167 86 73.75 86.5C74.1667 87.1667 74.375 88.2083 74.375 89.625C74.375 90.9583 74.25 92.4583 74 94.125C73.8333 95.7083 73.5417 97.2917 73.125 98.875C72.7083 100.375 72.25 101.583 71.75 102.5C71.1667 103.667 69.8333 105.167 67.75 107C65.75 108.833 63.5 110.667 61 112.5C58.5 114.333 56.0417 115.958 53.625 117.375C51.2917 118.792 49.5 119.667 48.25 120C47.3333 120.25 45.9583 120.5 44.125 120.75C42.375 121 40.5417 121.208 38.625 121.375C36.7083 121.542 34.9583 121.667 33.375 121.75C31.875 121.75 30.9583 121.667 30.625 121.5C29.9583 121.083 29.375 120.458 28.875 119.625C28.4583 118.792 28.25 117.708 28.25 116.375C28.4167 113.458 28.75 111.458 29.25 110.375C29.4167 110.125 29.625 110 29.875 110C30.125 109.917 30.5417 109.875 31.125 109.875C31.7083 109.875 32.4583 109.875 33.375 109.875C34.2917 109.875 35.5 109.833 37 109.75C36.5833 105.5 36.2083 101.458 35.875 97.625C35.5417 93.7917 35.25 90.4167 35 87.5C34.6667 84.0833 34.4167 80.875 34.25 77.875C34.0833 74.9583 33.8333 71.7083 33.5 68.125C33.25 65.0417 32.9583 61.4583 32.625 57.375C32.2917 53.2917 31.9167 48.875 31.5 44.125C30.75 44.125 29.875 44.125 28.875 44.125C27.875 44.125 26.875 44.125 25.875 44.125C24.9583 44.0417 24.1667 43.9583 23.5 43.875C22.75 43.7083 22.2917 43.5 22.125 43.25C21.7917 42.75 21.5417 41.8333 21.375 40.5C21.2083 39.0833 21.125 37.7083 21.125 36.375C21.125 34.9583 21.375 33.5833 21.875 32.25C22.375 30.8333 22.9583 29.9167 23.625 29.5C23.7917 29.4167 24.4583 29.4167 25.625 29.5C26.7917 29.5 28.2083 29.625 29.875 29.875C31.5417 30.0417 33.3333 30.2917 35.25 30.625C37.25 30.875 39.125 31.1667 40.875 31.5C42.625 31.75 44.1667 32 45.5 32.25C46.8333 32.5 47.75 32.6667 48.25 32.75C49.0833 32.9167 50.6667 33.375 53 34.125C55.4167 34.7917 58 35.5833 60.75 36.5C63.5 37.4167 66.125 38.4583 68.625 39.625C71.125 40.7083 72.875 41.7917 73.875 42.875C74.2917 43.2917 74.6667 44.4583 75 46.375C75.4167 48.2917 75.7083 50.4167 75.875 52.75C76.125 55.0833 76.2083 57.2917 76.125 59.375C76.125 61.375 75.9167 62.7083 75.5 63.375C75.1667 63.875 74 64.75 72 66C70 67.25 67.7917 68.5417 65.375 69.875C62.625 71.375 59.5417 73.0833 56.125 75ZM46.625 72.5C47.7083 72 49.1667 71 51 69.5C52.9167 68 54.7917 66.3333 56.625 64.5C58.5417 62.5833 60.1667 60.6667 61.5 58.75C62.9167 56.75 63.625 55.0417 63.625 53.625C63.625 53.2083 63.1667 52.6667 62.25 52C61.4167 51.3333 60.25 50.6667 58.75 50C57.25 49.3333 55.4583 48.6667 53.375 48C51.375 47.25 49.2083 46.5833 46.875 46L46.625 72.5ZM46.5 108.375C48.8333 107.875 51.0417 107.083 53.125 106C55.2083 104.917 57.0417 103.75 58.625 102.5C60.2083 101.167 61.4583 99.8333 62.375 98.5C63.2917 97.1667 63.75 95.9583 63.75 94.875C63.75 93.7917 63.0417 92.5833 61.625 91.25C60.2917 89.9167 58.6667 88.5833 56.75 87.25C54.9167 85.9167 53.0417 84.7083 51.125 83.625C49.2083 82.5417 47.7083 81.75 46.625 81.25L46.5 108.375ZM92.25 123.25C91.6667 123.417 91 123.208 90.25 122.625C89.5 122.042 88.75 121.333 88 120.5C87.3333 119.583 86.75 118.625 86.25 117.625C85.75 116.625 85.4167 115.792 85.25 115.125C84.6667 107.792 84.1667 101.25 83.75 95.5C83.4167 89.6667 83.125 84.5 82.875 80C82.625 75.5 82.4167 71.625 82.25 68.375C82.1667 65.0417 82.125 62.2083 82.125 59.875C82.0417 54.4583 82.125 50.7083 82.375 48.625C82.625 47.125 83.2917 45.625 84.375 44.125C85.5417 42.625 86.75 41.3333 88 40.25C89.3333 39.1667 90.5417 38.3333 91.625 37.75C92.7917 37.1667 93.5417 37 93.875 37.25C94.2083 37.5 94.4583 38.9167 94.625 41.5C94.7917 44 94.9167 47.2917 95 51.375C95.0833 55.4583 95.0833 60.0417 95 65.125C95 70.2083 94.9167 75.4167 94.75 80.75C94.6667 86.0833 94.5417 91.2917 94.375 96.375C94.2083 101.458 94 106 93.75 110C93.5 113.917 93.25 117.083 93 119.5C92.75 121.917 92.5 123.167 92.25 123.25ZM131.25 55.625C131.833 56.125 132.375 57.0833 132.875 58.5C133.458 59.9167 133.958 61.625 134.375 63.625C134.792 65.625 135.167 67.7917 135.5 70.125C135.833 72.4583 136.125 74.75 136.375 77C136.625 79.25 136.792 81.375 136.875 83.375C137.042 85.2917 137.167 86.875 137.25 88.125C137.333 89.625 137.375 91.2083 137.375 92.875C137.458 94.4583 137.458 96 137.375 97.5C137.375 98.9167 137.292 100.208 137.125 101.375C137.042 102.542 136.875 103.417 136.625 104C136.125 105.25 135.25 106.125 134 106.625C132.833 107.042 131.5 107.333 130 107.5C129.25 107.583 127.958 107.625 126.125 107.625C124.375 107.542 122.458 107.458 120.375 107.375C118.375 107.208 116.458 107.042 114.625 106.875C112.792 106.708 111.417 106.542 110.5 106.375C108.667 105.958 107.333 105.417 106.5 104.75C105.75 104.083 105 103.125 104.25 101.875C104 101.375 103.792 100.125 103.625 98.125C103.458 96.0417 103.333 93.5833 103.25 90.75C103.25 87.8333 103.292 84.7083 103.375 81.375C103.458 78.0417 103.583 74.875 103.75 71.875C104 68.875 104.25 66.25 104.5 64C104.833 61.75 105.25 60.25 105.75 59.5C106.583 58.3333 108 57.25 110 56.25C112.083 55.25 113.958 54.4583 115.625 53.875C116.458 53.625 117.542 53.4583 118.875 53.375C120.292 53.2083 121.75 53.2083 123.25 53.375C124.833 53.4583 126.333 53.7083 127.75 54.125C129.167 54.4583 130.333 54.9583 131.25 55.625ZM124.25 94.375C124.417 94.0417 124.583 93.0417 124.75 91.375C125 89.625 125.167 87.5417 125.25 85.125C125.417 82.7083 125.5 80.125 125.5 77.375C125.583 74.625 125.625 72.0833 125.625 69.75C125.625 67.4167 125.542 65.4583 125.375 63.875C125.208 62.2083 125 61.25 124.75 61C124.333 60.6667 123.708 60.5417 122.875 60.625C122.125 60.625 121.333 60.75 120.5 61C119.667 61.1667 118.917 61.4167 118.25 61.75C117.583 62 117.125 62.25 116.875 62.5C115.792 63.4167 115.208 64.9167 115.125 67C115.125 67.5833 115.042 69.25 114.875 72C114.792 74.6667 114.75 77.5833 114.75 80.75C114.75 83.8333 114.792 86.7083 114.875 89.375C115.042 92.0417 115.333 93.6667 115.75 94.25C116.167 94.8333 116.75 95.2917 117.5 95.625C118.333 95.875 119.167 96 120 96C120.917 96 121.75 95.875 122.5 95.625C123.333 95.2917 123.917 94.875 124.25 94.375ZM175.625 128C175.458 128.5 174.958 129.292 174.125 130.375C173.292 131.458 172.292 132.583 171.125 133.75C169.958 134.917 168.792 135.958 167.625 136.875C166.458 137.792 165.5 138.375 164.75 138.625C163.083 139.125 161.292 139 159.375 138.25C157.542 137.583 155.75 136.667 154 135.5C152.333 134.333 150.875 133.125 149.625 131.875C148.375 130.708 147.583 129.833 147.25 129.25C147 128.667 146.75 127.875 146.5 126.875C146.333 125.875 146.208 124.875 146.125 123.875C146.042 122.875 146.042 122.042 146.125 121.375C146.292 120.625 146.583 120.25 147 120.25C147.417 120.25 148.375 120.667 149.875 121.5C151.458 122.25 153.083 123.042 154.75 123.875C156.5 124.708 158.125 125.375 159.625 125.875C161.125 126.375 162.042 126.292 162.375 125.625C162.708 125.042 163 123.417 163.25 120.75C163.583 118 163.958 114.667 164.375 110.75C164.208 110.75 164.042 110.792 163.875 110.875C163.792 110.875 163.667 110.875 163.5 110.875C162.75 111.125 161.708 111.25 160.375 111.25C159.042 111.25 157.625 111.167 156.125 111C154.708 110.833 153.292 110.542 151.875 110.125C150.542 109.625 149.458 109 148.625 108.25C148.292 107.917 147.917 107.417 147.5 106.75C147.167 106 146.917 105.042 146.75 103.875C146.5 103.375 146.083 101.958 145.5 99.625C144.917 97.2083 144.333 94.5 143.75 91.5C143.167 88.4167 142.625 85.3333 142.125 82.25C141.708 79.1667 141.583 76.7083 141.75 74.875C141.833 73.0417 142.167 71.1667 142.75 69.25C143.333 67.25 144 65.375 144.75 63.625C145.583 61.875 146.458 60.375 147.375 59.125C148.292 57.7917 149.208 56.875 150.125 56.375C152.125 55.375 154.625 55.1667 157.625 55.75C160.625 56.3333 163.833 57.4583 167.25 59.125C167.333 58.2917 167.708 57.375 168.375 56.375C169.042 55.375 169.792 54.5 170.625 53.75C171.542 52.9167 172.458 52.3333 173.375 52C174.292 51.5833 175 51.5417 175.5 51.875C175.75 52.0417 175.958 53.2083 176.125 55.375C176.292 57.4583 176.417 60.2083 176.5 63.625C176.667 66.9583 176.75 70.7917 176.75 75.125C176.833 79.375 176.833 83.7917 176.75 88.375C176.75 92.875 176.708 97.3333 176.625 101.75C176.625 106.167 176.542 110.208 176.375 113.875C176.292 117.542 176.167 120.625 176 123.125C175.917 125.625 175.792 127.25 175.625 128ZM166.875 68.625C166.375 68.2917 165.792 67.9583 165.125 67.625C164.542 67.2917 163.875 66.9583 163.125 66.625C162.375 66.2917 161.542 66 160.625 65.75C160.208 65.5833 159.625 65.75 158.875 66.25C158.208 66.75 157.5 67.4583 156.75 68.375C156.083 69.2917 155.5 70.4167 155 71.75C154.5 73 154.25 74.3333 154.25 75.75C154.25 75.9167 154.292 76.7083 154.375 78.125C154.458 79.5417 154.583 81.25 154.75 83.25C154.917 85.25 155.083 87.4167 155.25 89.75C155.417 92.0833 155.583 94.25 155.75 96.25C156 98.25 156.208 99.9583 156.375 101.375C156.542 102.708 156.667 103.417 156.75 103.5C157.083 103.833 157.542 104 158.125 104C158.792 104 159.417 103.917 160 103.75C160.667 103.583 161.25 103.375 161.75 103.125C162.25 102.875 162.625 102.667 162.875 102.5C163.958 101.75 164.625 100.292 164.875 98.125C165.042 97.9583 165.125 97.5 165.125 96.75C165.375 91.25 165.625 86.2917 165.875 81.875C166.125 77.375 166.458 72.9583 166.875 68.625ZM215.875 128C215.708 128.5 215.208 129.292 214.375 130.375C213.542 131.458 212.542 132.583 211.375 133.75C210.208 134.917 209.042 135.958 207.875 136.875C206.708 137.792 205.75 138.375 205 138.625C203.333 139.125 201.542 139 199.625 138.25C197.792 137.583 196 136.667 194.25 135.5C192.583 134.333 191.125 133.125 189.875 131.875C188.625 130.708 187.833 129.833 187.5 129.25C187.25 128.667 187 127.875 186.75 126.875C186.583 125.875 186.458 124.875 186.375 123.875C186.292 122.875 186.292 122.042 186.375 121.375C186.542 120.625 186.833 120.25 187.25 120.25C187.667 120.25 188.625 120.667 190.125 121.5C191.708 122.25 193.333 123.042 195 123.875C196.75 124.708 198.375 125.375 199.875 125.875C201.375 126.375 202.292 126.292 202.625 125.625C202.958 125.042 203.25 123.417 203.5 120.75C203.833 118 204.208 114.667 204.625 110.75C204.458 110.75 204.292 110.792 204.125 110.875C204.042 110.875 203.917 110.875 203.75 110.875C203 111.125 201.958 111.25 200.625 111.25C199.292 111.25 197.875 111.167 196.375 111C194.958 110.833 193.542 110.542 192.125 110.125C190.792 109.625 189.708 109 188.875 108.25C188.542 107.917 188.167 107.417 187.75 106.75C187.417 106 187.167 105.042 187 103.875C186.75 103.375 186.333 101.958 185.75 99.625C185.167 97.2083 184.583 94.5 184 91.5C183.417 88.4167 182.875 85.3333 182.375 82.25C181.958 79.1667 181.833 76.7083 182 74.875C182.083 73.0417 182.417 71.1667 183 69.25C183.583 67.25 184.25 65.375 185 63.625C185.833 61.875 186.708 60.375 187.625 59.125C188.542 57.7917 189.458 56.875 190.375 56.375C192.375 55.375 194.875 55.1667 197.875 55.75C200.875 56.3333 204.083 57.4583 207.5 59.125C207.583 58.2917 207.958 57.375 208.625 56.375C209.292 55.375 210.042 54.5 210.875 53.75C211.792 52.9167 212.708 52.3333 213.625 52C214.542 51.5833 215.25 51.5417 215.75 51.875C216 52.0417 216.208 53.2083 216.375 55.375C216.542 57.4583 216.667 60.2083 216.75 63.625C216.917 66.9583 217 70.7917 217 75.125C217.083 79.375 217.083 83.7917 217 88.375C217 92.875 216.958 97.3333 216.875 101.75C216.875 106.167 216.792 110.208 216.625 113.875C216.542 117.542 216.417 120.625 216.25 123.125C216.167 125.625 216.042 127.25 215.875 128ZM207.125 68.625C206.625 68.2917 206.042 67.9583 205.375 67.625C204.792 67.2917 204.125 66.9583 203.375 66.625C202.625 66.2917 201.792 66 200.875 65.75C200.458 65.5833 199.875 65.75 199.125 66.25C198.458 66.75 197.75 67.4583 197 68.375C196.333 69.2917 195.75 70.4167 195.25 71.75C194.75 73 194.5 74.3333 194.5 75.75C194.5 75.9167 194.542 76.7083 194.625 78.125C194.708 79.5417 194.833 81.25 195 83.25C195.167 85.25 195.333 87.4167 195.5 89.75C195.667 92.0833 195.833 94.25 196 96.25C196.25 98.25 196.458 99.9583 196.625 101.375C196.792 102.708 196.917 103.417 197 103.5C197.333 103.833 197.792 104 198.375 104C199.042 104 199.667 103.917 200.25 103.75C200.917 103.583 201.5 103.375 202 103.125C202.5 102.875 202.875 102.667 203.125 102.5C204.208 101.75 204.875 100.292 205.125 98.125C205.292 97.9583 205.375 97.5 205.375 96.75C205.625 91.25 205.875 86.2917 206.125 81.875C206.375 77.375 206.708 72.9583 207.125 68.625ZM284.5 37.75C284.667 38.0833 284.75 39.25 284.75 41.25C284.833 43.25 284.833 45.6667 284.75 48.5C284.75 51.3333 284.667 54.375 284.5 57.625C284.333 60.7917 284.125 63.7917 283.875 66.625C283.708 68.2083 283.417 70.5833 283 73.75C282.667 76.9167 282.25 80.4167 281.75 84.25C281.25 88.0833 280.708 92.0417 280.125 96.125C279.625 100.125 279.125 103.833 278.625 107.25C278.125 110.583 277.667 113.375 277.25 115.625C276.917 117.875 276.667 119.083 276.5 119.25C276.167 119.5 275.625 120.125 274.875 121.125C274.125 122.042 273.292 123 272.375 124C271.542 124.917 270.75 125.667 270 126.25C269.25 126.833 268.75 126.917 268.5 126.5C268.333 125.667 268.25 123.083 268.25 118.75C268.25 116.917 268.25 114.625 268.25 111.875C268.333 109.042 268.417 105.625 268.5 101.625C268.667 97.625 268.875 92.9583 269.125 87.625C269.375 82.2917 269.667 76.125 270 69.125C268.333 74.7917 266.833 79.7917 265.5 84.125C264.25 88.4583 263.125 92.25 262.125 95.5C261.208 98.6667 260.417 101.375 259.75 103.625C259.083 105.792 258.5 107.583 258 109C256.917 112.333 256.208 114.292 255.875 114.875C255.542 114.958 255 114.708 254.25 114.125C253.583 113.542 252.792 112.708 251.875 111.625C251.042 110.458 250.167 109.083 249.25 107.5C248.417 105.917 247.708 104.167 247.125 102.25C246.542 100.5 245.792 98.1667 244.875 95.25C244.042 92.75 242.958 89.5 241.625 85.5C240.292 81.4167 238.667 76.3333 236.75 70.25C237.25 77.0833 237.667 83.0833 238 88.25C238.333 93.4167 238.583 97.9167 238.75 101.75C239 105.583 239.167 108.833 239.25 111.5C239.417 114.083 239.5 116.25 239.5 118C239.583 122 239.458 124.292 239.125 124.875C238.292 124.875 237.375 124.5 236.375 123.75C235.458 122.917 234.542 121.958 233.625 120.875C232.792 119.708 232.042 118.583 231.375 117.5C230.792 116.417 230.458 115.625 230.375 115.125C230.292 114.792 230.042 113.25 229.625 110.5C229.208 107.75 228.708 104.25 228.125 100C227.625 95.6667 227.042 90.8333 226.375 85.5C225.792 80.0833 225.208 74.5833 224.625 69C224.125 63.4167 223.708 58 223.375 52.75C223.042 47.4167 222.875 42.6667 222.875 38.5C222.875 37.8333 223.708 36.9583 225.375 35.875C227.042 34.7083 228.917 33.625 231 32.625C233.167 31.5417 235.167 30.625 237 29.875C238.833 29.0417 239.958 28.625 240.375 28.625C240.708 28.625 241.042 29.5833 241.375 31.5C241.792 33.4167 242.25 35.8333 242.75 38.75C243.25 41.6667 243.792 44.9167 244.375 48.5C244.958 52.0833 245.625 55.5 246.375 58.75C246.958 62.0833 247.667 65.5417 248.5 69.125C249.167 72.2083 249.917 75.625 250.75 79.375C251.667 83.0417 252.667 86.625 253.75 90.125C254.917 85.0417 255.958 80.4583 256.875 76.375C257.875 72.2083 258.75 68.6667 259.5 65.75C260.417 62.3333 261.208 59.2917 261.875 56.625C263.375 50.125 264.833 45 266.25 41.25C267.75 37.5 268.708 35.2917 269.125 34.625C269.375 34.2917 270.25 34.2083 271.75 34.375C273.333 34.5417 275.042 34.8333 276.875 35.25C278.708 35.5833 280.375 36 281.875 36.5C283.458 37 284.333 37.4167 284.5 37.75ZM323.625 58.25C324.125 58.8333 324.583 59.4583 325 60.125C325.417 60.7083 325.792 61.5417 326.125 62.625C326.458 63.625 326.708 64.9583 326.875 66.625C327.125 68.2917 327.25 70.4583 327.25 73.125C327.25 77.375 327.125 81.6667 326.875 86C326.708 90.25 326.542 94 326.375 97.25C326.292 100.167 326.208 102.875 326.125 105.375C326.042 107.875 325.958 110.083 325.875 112C325.792 113.833 325.667 115.292 325.5 116.375C325.417 117.458 325.333 118.042 325.25 118.125C324.917 118.375 324.375 118.292 323.625 117.875C322.958 117.375 322.208 116.75 321.375 116C320.625 115.25 319.917 114.458 319.25 113.625C318.583 112.792 318.167 112.125 318 111.625C318 111.208 317.875 110 317.625 108C315.625 109.167 313.417 110 311 110.5C308.583 110.917 306.167 111.083 303.75 111C301.417 110.833 299.25 110.375 297.25 109.625C295.25 108.875 293.75 107.875 292.75 106.625C292.333 106.125 291.958 105.375 291.625 104.375C291.375 103.375 291.125 102.25 290.875 101C290.708 99.6667 290.542 98.2917 290.375 96.875C290.208 95.375 290.083 94 290 92.75C289.833 89.5 290.25 86.7083 291.25 84.375C292.25 81.9583 294.083 80.1667 296.75 79C297.917 78.5 299.458 78.25 301.375 78.25C303.375 78.1667 305.333 78.25 307.25 78.5C309.25 78.6667 311.042 78.9167 312.625 79.25C314.208 79.5 315.208 79.7083 315.625 79.875C315.292 75.625 315.042 71.9583 314.875 68.875C314.708 65.7083 314.375 63.6667 313.875 62.75C313.458 62.1667 312.958 61.5833 312.375 61C311.875 60.5833 311.208 60.125 310.375 59.625C309.542 59.125 308.542 58.75 307.375 58.5C306.458 58.3333 305.625 58.7083 304.875 59.625C304.208 60.4583 303.583 61.9583 303 64.125C302.5 66.2083 302.208 69.4167 302.125 73.75C299.208 73.8333 296.958 73.8333 295.375 73.75C293.875 73.5833 292.75 73.4167 292 73.25C291.083 73.0833 290.542 72.875 290.375 72.625C290.208 72.2917 290.292 71.0833 290.625 69C290.958 66.8333 291.417 64.5 292 62C292.667 59.5 293.417 57.125 294.25 54.875C295.167 52.625 296.125 51.2083 297.125 50.625C299.125 49.4583 301.5 49.0417 304.25 49.375C307.083 49.7083 309.833 50.4167 312.5 51.5C315.167 52.5833 317.542 53.7917 319.625 55.125C321.708 56.4583 323.042 57.5 323.625 58.25ZM315.875 94.75C315.875 94.3333 315.917 93.7917 316 93.125C316.083 92.375 316.125 91.625 316.125 90.875C316.125 90.125 316.083 89.4167 316 88.75C316 88.0833 315.917 87.5833 315.75 87.25C315.5 86.75 314.75 86.3333 313.5 86C312.333 85.6667 311 85.4583 309.5 85.375C308 85.2083 306.583 85.1667 305.25 85.25C303.917 85.25 303 85.4167 302.5 85.75C301.833 86.1667 301.333 86.75 301 87.5C300.75 88.25 300.583 89.4167 300.5 91C300.5 91.75 300.542 92.5417 300.625 93.375C300.708 94.2083 300.792 95.0417 300.875 95.875C301.042 96.625 301.208 97.2917 301.375 97.875C301.625 98.4583 301.875 98.8333 302.125 99C302.708 99.4167 303.708 99.7917 305.125 100.125C306.625 100.375 308.125 100.458 309.625 100.375C311.125 100.208 312.5 99.7083 313.75 98.875C315 98.0417 315.708 96.6667 315.875 94.75ZM370.75 71.625C370.75 72.9583 370.583 74.875 370.25 77.375C370 79.875 369.625 82.625 369.125 85.625C368.625 88.5417 368.083 91.5833 367.5 94.75C367 97.8333 366.458 100.667 365.875 103.25C365.375 105.833 364.917 108 364.5 109.75C364.167 111.5 363.958 112.458 363.875 112.625C363.708 112.875 363.25 113.042 362.5 113.125C361.833 113.125 361.042 113.042 360.125 112.875C359.292 112.708 358.5 112.458 357.75 112.125C357.083 111.792 356.667 111.375 356.5 110.875C356.417 110.542 356.375 109.375 356.375 107.375C356.458 105.375 356.542 103 356.625 100.25C356.792 97.4167 356.958 94.4167 357.125 91.25C357.292 88 357.458 85 357.625 82.25C357.875 79.4167 358.042 77 358.125 75C358.292 73 358.375 71.7917 358.375 71.375C358.375 69.875 358.208 68.4583 357.875 67.125C357.625 65.7083 357.292 64.5 356.875 63.5C356.458 62.5 355.958 61.75 355.375 61.25C354.875 60.6667 354.417 60.4583 354 60.625C352.917 60.7917 352 61.0833 351.25 61.5C350.5 61.8333 349.875 62.2083 349.375 62.625C348.792 63.125 348.333 63.7083 348 64.375C347.917 64.5417 347.75 65.0417 347.5 65.875C347.333 66.7083 347.25 67.6667 347.25 68.75C347.25 69.0833 347.25 70.2917 347.25 72.375C347.25 74.375 347.208 76.7917 347.125 79.625C347.125 82.4583 347.083 85.5417 347 88.875C347 92.125 346.958 95.1667 346.875 98C346.875 100.75 346.833 103.125 346.75 105.125C346.667 107.125 346.583 108.25 346.5 108.5C346.333 109 345.917 109.708 345.25 110.625C344.583 111.458 343.833 112.25 343 113C342.167 113.75 341.375 114.333 340.625 114.75C339.875 115.083 339.375 115 339.125 114.5C338.875 114.25 338.625 113.042 338.375 110.875C338.125 108.625 337.833 105.917 337.5 102.75C337.25 99.5 336.958 96 336.625 92.25C336.292 88.4167 336 84.75 335.75 81.25C335.5 77.75 335.292 74.5833 335.125 71.75C334.958 68.9167 334.833 66.875 334.75 65.625C334.667 63.875 334.583 61.9167 334.5 59.75C334.417 57.5 334.333 55.4167 334.25 53.5C334.25 51.5 334.25 49.7917 334.25 48.375C334.333 46.875 334.5 45.9583 334.75 45.625C334.917 45.2917 335.458 45.2083 336.375 45.375C337.375 45.5417 338.417 45.875 339.5 46.375C340.667 46.7917 341.75 47.3333 342.75 48C343.75 48.5833 344.417 49.1667 344.75 49.75C344.917 50.25 345.125 50.8333 345.375 51.5C345.625 52.0833 345.833 53.0833 346 54.5C347.417 53.6667 348.958 52.9167 350.625 52.25C352.292 51.5 353.917 50.9583 355.5 50.625C357.167 50.2083 358.75 50.0833 360.25 50.25C361.75 50.3333 363.083 50.75 364.25 51.5C365 52.0833 365.75 53.0833 366.5 54.5C367.333 55.9167 368.042 57.5833 368.625 59.5C369.292 61.4167 369.792 63.4583 370.125 65.625C370.542 67.7083 370.75 69.7083 370.75 71.625Z" fill="url(#paint0_linear_2_4)"/>
</g>
<ellipse cx="199" cy="156" rx="199" ry="11" fill="url(#paint1_linear_2_4)"/>
<defs>
<filter id="filter0_d_2_4" x="21.125" y="28.625" width="358.625" height="124.75" filterUnits="userSpaceOnUse" color-interpolation-filters="sRGB">
<feFlood flood-opacity="0" result="BackgroundImageFix"/>
<feColorMatrix in="SourceAlpha" type="matrix" values="0 0 0 0 0 0 0 0 0 0 0 0 0 0 0 0 0 0 127 0" result="hardAlpha"/>
<feOffset dx="5" dy="10"/>
<feGaussianBlur stdDeviation="2"/>
<feComposite in2="hardAlpha" operator="out"/>
<feColorMatrix type="matrix" values="0 0 0 0 0 0 0 0 0 0.5625 0 0 0 0 0.515884 0 0 0 0.25 0"/>
<feBlend mode="normal" in2="BackgroundImageFix" result="effect1_dropShadow_2_4"/>
<feBlend mode="normal" in="SourceGraphic" in2="effect1_dropShadow_2_4" result="shape"/>
</filter>
<linearGradient id="paint0_linear_2_4" x1="34" y1="43" x2="374" y2="89" gradientUnits="userSpaceOnUse">
<stop stop-color="#2EE3D4"/>
<stop offset="1" stop-color="#233231"/>
</linearGradient>
<linearGradient id="paint1_linear_2_4" x1="199" y1="134" x2="208" y2="183" gradientUnits="userSpaceOnUse">
<stop stop-color="#2EE3D4"/>
<stop offset="1" stop-color="#197D75"/>
</linearGradient>
</defs>
</svg>
