<svg width="65" height="107" viewBox="0 0 65 107" fill="none" xmlns="http://www.w3.org/2000/svg">
<g filter="url(#filter0_d_4_5)">
<path d="M35.125 46C37.0417 47 38.9583 48.0833 40.875 49.25C42.875 50.4167 44.7083 51.5417 46.375 52.625C48.0417 53.625 49.4167 54.5833 50.5 55.5C51.6667 56.3333 52.4167 57 52.75 57.5C53.1667 58.1667 53.375 59.2083 53.375 60.625C53.375 61.9583 53.25 63.4583 53 65.125C52.8333 66.7083 52.5417 68.2917 52.125 69.875C51.7083 71.375 51.25 72.5833 50.75 73.5C50.1667 74.6667 48.8333 76.1667 46.75 78C44.75 79.8333 42.5 81.6667 40 83.5C37.5 85.3333 35.0417 86.9583 32.625 88.375C30.2917 89.7917 28.5 90.6667 27.25 91C26.3333 91.25 24.9583 91.5 23.125 91.75C21.375 92 19.5417 92.2083 17.625 92.375C15.7083 92.5417 13.9583 92.6667 12.375 92.75C10.875 92.75 9.95833 92.6667 9.625 92.5C8.95833 92.0833 8.375 91.4583 7.875 90.625C7.45833 89.7917 7.25 88.7083 7.25 87.375C7.41667 84.4583 7.75 82.4583 8.25 81.375C8.41667 81.125 8.625 81 8.875 81C9.125 80.9167 9.54167 80.875 10.125 80.875C10.7083 80.875 11.4583 80.875 12.375 80.875C13.2917 80.875 14.5 80.8333 16 80.75C15.5833 76.5 15.2083 72.4583 14.875 68.625C14.5417 64.7917 14.25 61.4167 14 58.5C13.6667 55.0833 13.4167 51.875 13.25 48.875C13.0833 45.9583 12.8333 42.7083 12.5 39.125C12.25 36.0417 11.9583 32.4583 11.625 28.375C11.2917 24.2917 10.9167 19.875 10.5 15.125C9.75 15.125 8.875 15.125 7.875 15.125C6.875 15.125 5.875 15.125 4.875 15.125C3.95833 15.0417 3.16667 14.9583 2.5 14.875C1.75 14.7083 1.29167 14.5 1.125 14.25C0.791667 13.75 0.541667 12.8333 0.375 11.5C0.208333 10.0833 0.125 8.70833 0.125 7.375C0.125 5.95833 0.375 4.58333 0.875 3.25C1.375 1.83333 1.95833 0.916667 2.625 0.5C2.79167 0.416667 3.45833 0.416667 4.625 0.5C5.79167 0.5 7.20833 0.625 8.875 0.875C10.5417 1.04167 12.3333 1.29167 14.25 1.625C16.25 1.875 18.125 2.16667 19.875 2.5C21.625 2.75 23.1667 3 24.5 3.25C25.8333 3.5 26.75 3.66667 27.25 3.75C28.0833 3.91667 29.6667 4.375 32 5.125C34.4167 5.79167 37 6.58333 39.75 7.5C42.5 8.41667 45.125 9.45833 47.625 10.625C50.125 11.7083 51.875 12.7917 52.875 13.875C53.2917 14.2917 53.6667 15.4583 54 17.375C54.4167 19.2917 54.7083 21.4167 54.875 23.75C55.125 26.0833 55.2083 28.2917 55.125 30.375C55.125 32.375 54.9167 33.7083 54.5 34.375C54.1667 34.875 53 35.75 51 37C49 38.25 46.7917 39.5417 44.375 40.875C41.625 42.375 38.5417 44.0833 35.125 46ZM25.625 43.5C26.7083 43 28.1667 42 30 40.5C31.9167 39 33.7917 37.3333 35.625 35.5C37.5417 33.5833 39.1667 31.6667 40.5 29.75C41.9167 27.75 42.625 26.0417 42.625 24.625C42.625 24.2083 42.1667 23.6667 41.25 23C40.4167 22.3333 39.25 21.6667 37.75 21C36.25 20.3333 34.4583 19.6667 32.375 19C30.375 18.25 28.2083 17.5833 25.875 17L25.625 43.5ZM25.5 79.375C27.8333 78.875 30.0417 78.0833 32.125 77C34.2083 75.9167 36.0417 74.75 37.625 73.5C39.2083 72.1667 40.4583 70.8333 41.375 69.5C42.2917 68.1667 42.75 66.9583 42.75 65.875C42.75 64.7917 42.0417 63.5833 40.625 62.25C39.2917 60.9167 37.6667 59.5833 35.75 58.25C33.9167 56.9167 32.0417 55.7083 30.125 54.625C28.2083 53.5417 26.7083 52.75 25.625 52.25L25.5 79.375Z" fill="url(#paint0_linear_4_5)"/>
</g>
<defs>
<filter id="filter0_d_4_5" x="0.125" y="0.375" width="64.125" height="106.375" filterUnits="userSpaceOnUse" color-interpolation-filters="sRGB">
<feFlood flood-opacity="0" result="BackgroundImageFix"/>
<feColorMatrix in="SourceAlpha" type="matrix" values="0 0 0 0 0 0 0 0 0 0 0 0 0 0 0 0 0 0 127 0" result="hardAlpha"/>
<feOffset dx="5" dy="10"/>
<feGaussianBlur stdDeviation="2"/>
<feComposite in2="hardAlpha" operator="out"/>
<feColorMatrix type="matrix" values="0 0 0 0 0 0 0 0 0 0.5625 0 0 0 0 0.515884 0 0 0 0.25 0"/>
<feBlend mode="normal" in2="BackgroundImageFix" result="effect1_dropShadow_4_5"/>
<feBlend mode="normal" in="SourceGraphic" in2="effect1_dropShadow_4_5" result="shape"/>
</filter>
<linearGradient id="paint0_linear_4_5" x1="5.59885" y1="7.38461" x2="67.056" y2="9.1303" gradientUnits="userSpaceOnUse">
<stop stop-color="#2EE3D4"/>
<stop offset="1" stop-color="#233231"/>
</linearGradient>
</defs>
</svg>
